<?xml version="1.0" encoding="iso-8859-1"?>
<!-- Generator: Adobe Illustrator 19.0.0, SVG Export Plug-In . SVG Version: 6.00 Build 0)  -->
<svg version="1.1" id="Layer_1" xmlns="http://www.w3.org/2000/svg" xmlns:xlink="http://www.w3.org/1999/xlink" x="0px" y="0px"
	 viewBox="0 0 512 512" style="enable-background:new 0 0 512 512;" xml:space="preserve">
<path style="fill:#34495E;" d="M0,256.006C0,397.402,114.606,512.004,255.996,512C397.394,512.004,512,397.402,512,256.006
	C512.009,114.61,397.394,0,255.996,0C114.606,0,0,114.614,0,256.006z"/>
<path style="fill:#34495E;" d="M509.011,295.215c-0.465-0.476-139.609-139.593-140.146-140.146
	c-27.769-29.553-67.266-47.537-110.145-47.537c-58.736,0-110.471,33.041-135.219,84.054c-0.462-0.639-23.833-24.012-24.467-24.459
	c-1.847-2.579-5.169-3.756-8.263-2.532c-3.628,1.446-5.392,5.562-3.946,9.185l22.583,56.56c0.509,1.273,1.454,2.245,2.55,3.027
	c0.457,0.643,155.508,155.811,155.83,156.119c-4.786,0.497-9.614,0.843-14.521,0.843c-11.733,0-23.183-1.493-34.148-4.3
	c-0.258-0.261-0.528-0.505-0.821-0.722c-0.448-0.651-97.302-97.465-97.926-97.925c-1.644-2.391-4.611-3.663-7.567-2.867
	c-3.777,0.987-6.034,4.853-5.043,8.63c6.633,25.252,19.635,47.521,36.974,65.417c0.527,0.562,149.618,149.601,150.154,150.154
	c0.097,0.103,0.201,0.199,0.3,0.3C405.196,492.12,492.107,405.215,509.011,295.215z"/>
<g>
	<path style="fill:#F4F6F9;" d="M113.338,234.279c0.849,0.341,1.743,0.511,2.638,0.511c1.002,0,1.999-0.21,2.927-0.635
		l55.185-25.097c3.552-1.616,5.126-5.807,3.507-9.362c-1.619-3.555-5.82-5.126-9.362-3.507l-38.685,17.591
		c18.564-55.207,69.995-92.109,129.171-92.109c62.006,0,116.222,41.442,131.84,100.778c0.835,3.172,3.7,5.275,6.835,5.275
		c0.594,0,1.201-0.076,1.802-0.235c3.777-0.994,6.031-4.864,5.04-8.637c-17.253-65.546-77.092-111.321-145.517-111.321
		c-65.265,0-122.004,40.719-142.534,101.652l-16.227-40.644c-1.446-3.628-5.545-5.386-9.186-3.946
		c-3.628,1.446-5.392,5.562-3.946,9.186l22.583,56.559C110.128,232.135,111.547,233.562,113.338,234.279z"/>
	<path style="fill:#F4F6F9;" d="M425.174,338.223l-22.56-56.56c-0.715-1.795-2.133-3.225-3.929-3.942
		c-1.781-0.711-3.794-0.67-5.562,0.125l-55.21,25.076c-3.555,1.616-5.126,5.807-3.515,9.356c1.612,3.555,5.796,5.13,9.362,3.515
		l38.688-17.571c-18.617,55.207-70.055,92.109-129.182,92.109c-62.034,0-116.246-41.439-131.829-100.774
		c-0.994-3.777-4.867-6.055-8.634-5.04c-3.777,0.988-6.034,4.853-5.043,8.63c17.216,65.549,77.052,111.324,145.506,111.324
		c65.223,0,121.975-40.732,142.55-101.682l16.222,40.669c1.105,2.769,3.759,4.453,6.57,4.453c0.87,0,1.757-0.159,2.617-0.505
		C424.853,345.963,426.621,341.847,425.174,338.223z"/>
</g>
<g>
</g>
<g>
</g>
<g>
</g>
<g>
</g>
<g>
</g>
<g>
</g>
<g>
</g>
<g>
</g>
<g>
</g>
<g>
</g>
<g>
</g>
<g>
</g>
<g>
</g>
<g>
</g>
<g>
</g>
</svg>
